<svg xmlns="http://www.w3.org/2000/svg" viewBox="0 0 64 64">
  <rect width="64" height="64" rx="14" fill="#0f766e"/>
  <path fill="#fff" d="M19 24c2.8 0 5-2.7 5-6s-2.2-6-5-6-5 2.7-5 6 2.2 6 5 6Zm26 0c2.8 0 5-2.7 5-6s-2.2-6-5-6-5 2.7-5 6 2.2 6 5 6ZM28 22c2.5 0 4.5-2.5 4.5-5.5S30.5 11 28 11s-4.5 2.5-4.5 5.5S25.5 22 28 22Zm8 0c2.5 0 4.5-2.5 4.5-5.5S38.5 11 36 11s-4.5 2.5-4.5 5.5S33.5 22 36 22Zm-4 5c-8.7 0-16 7.6-16 15.6 0 5.1 3.4 9.4 8.1 9.4 2.9 0 4.9-1.6 7.9-1.6s5 1.6 7.9 1.6c4.7 0 8.1-4.3 8.1-9.4C48 34.6 40.7 27 32 27Z"/>
</svg>
